PathFileType	4	(X/Y/Z)	D:/Dropbox/2017/2017-10 SOFAMEA OpenSim seminar/OpenSim workshop LucaClement/Hands-on_Paris2017_Luca/For Participants/3_Scaling/transformed_Static_for_scaling.trc	
DataRate	CameraRate	NumFrames	NumMarkers	Units	OrigDataRate	OrigDataStartFrame	OrigNumFrames	
120.00	120.00	4	47	mm	120.00	88	697	
Frame#	Time	Sternum			Neck			RShoulder			LShoulder			Xiphoid			Thoracic			RAsis			LAsis			RPsis			LPsis			LThighSuperior			LThighInferior			LThighLateral			LKneeLateral			LKneeMedial			LShankSuperior			LShankInferior			LShankLateral			LAnkleLateral			LAnkleMedial			RThighSuperior			RThighInferior			RThighLateral			RKneeLateral			RShankSuperior			RShankInferior			RShankLateral			RAnkleLateral			RankleMedial			RHeel			RToe			RMidfootMedial			RMidfootLateral			RHindfoot			RMidfootSuperior			RToeMedial			RToeLateral			LHeel			LToe			LMidfootMedial			LMidfootLateral			LHindfoot			LMidfootSuperior			LToeMedial			LToeLateral			RKneeMedial			Sacral			
		X1	Y1	Z1	X2	Y2	Z2	X3	Y3	Z3	X4	Y4	Z4	X5	Y5	Z5	X6	Y6	Z6	X7	Y7	Z7	X8	Y8	Z8	X9	Y9	Z9	X10	Y10	Z10	X11	Y11	Z11	X12	Y12	Z12	X13	Y13	Z13	X14	Y14	Z14	X15	Y15	Z15	X16	Y16	Z16	X17	Y17	Z17	X18	Y18	Z18	X19	Y19	Z19	X20	Y20	Z20	X21	Y21	Z21	X22	Y22	Z22	X23	Y23	Z23	X24	Y24	Z24	X25	Y25	Z25	X26	Y26	Z26	X27	Y27	Z27	X28	Y28	Z28	X29	Y29	Z29	X30	Y30	Z30	X31	Y31	Z31	X32	Y32	Z32	X33	Y33	Z33	X34	Y34	Z34	X35	Y35	Z35	X36	Y36	Z36	X37	Y37	Z37	X38	Y38	Z38	X39	Y39	Z39	X40	Y40	Z40	X41	Y41	Z41	X42	Y42	Z42	X43	Y43	Z43	X44	Y44	Z44	X45	Y45	Z45	X46	Y46	Z46	X47	Y47	Z47	

88	0.725	535.44714	1459.00281	-469.34467	382.22672	1572.81458	-450.76538	434.26117	1556.09155	-299.37265	406.96460	1554.95630	-597.97839	563.11005	1303.38062	-456.34683	293.52780	1352.08594	-447.50101	492.11295	1039.60938	-320.80539	503.05423	1045.30481	-601.96454	305.89749	1067.68188	-409.76221	303.89987	1067.45422	-512.05457	444.28214	874.39294	-656.47412	469.11639	643.38416	-638.83612	544.13446	747.53302	-585.89221	473.68573	558.44348	-641.99225	466.45575	565.37732	-499.49707	464.32010	405.66135	-659.53375	429.63315	205.25194	-642.98438	487.93494	294.61273	-601.94360	410.72842	124.59470	-643.52130	439.54581	125.14519	-557.91400	428.13226	846.32330	-284.54764	442.78912	610.21014	-308.96359	531.63635	764.03687	-338.26529	435.05811	545.09924	-308.29141	421.87088	448.42139	-302.89713	414.04526	194.25125	-335.58539	480.36264	318.21082	-367.60449	404.79993	119.96091	-339.28619	436.71066	137.53792	-425.72675	331.63351	79.48211	-394.81458	645.97174	62.95533	-351.66135	552.82007	49.44492	-414.68625	540.94098	43.36855	-295.66696	486.21204	43.72166	-309.75494	514.11224	110.76560	-364.45987	597.68604	50.22834	-403.95169	588.73022	48.18769	-301.51273	341.41272	83.29605	-591.13586	648.71454	73.87068	-642.79657	555.44574	50.69632	-578.46649	541.75293	47.18216	-694.92603	487.59439	46.52933	-680.08179	523.39313	112.60022	-625.61444	597.08490	51.48771	-586.99420	586.00690	56.86166	-690.14471	477.96719	543.14722	-444.32364	304.89868	1067.56812	-460.90839 
89	0.733	535.47876	1458.99463	-469.38422	382.22775	1572.87732	-450.70389	434.33334	1556.10645	-299.43097	406.97363	1554.96692	-597.97766	563.11328	1303.37146	-456.33655	293.58475	1352.12830	-447.53461	492.11316	1039.60815	-320.80087	503.02124	1045.28967	-601.94104	305.89606	1067.69055	-409.78189	303.90939	1067.45984	-512.05048	443.93451	874.15314	-655.93677	469.15463	643.38782	-638.81879	544.14783	747.51886	-585.91284	473.80234	558.33917	-642.02673	466.49356	565.34442	-499.51733	464.34378	405.68259	-659.56287	429.64520	205.23557	-642.98798	487.93039	294.60602	-601.94702	410.67352	124.53638	-643.49280	439.55814	125.20508	-557.84265	428.13049	846.31830	-284.54257	442.78442	610.20087	-308.97131	531.63501	764.02478	-338.26682	435.04120	545.09033	-308.28348	421.87085	448.42313	-302.89957	414.05136	194.25591	-335.60327	480.36319	318.21078	-367.60342	404.79953	119.94463	-339.28101	436.68143	137.53952	-425.74695	331.72879	79.30920	-394.84558	645.96820	62.96222	-351.64764	552.41144	49.13311	-414.21744	540.93829	43.33749	-295.68210	486.21469	43.73222	-309.74127	514.17249	110.79430	-364.54346	597.69397	50.24375	-403.94687	588.73077	48.18537	-301.49490	341.38675	83.29989	-591.13965	648.70752	73.88474	-642.78107	555.44379	50.70139	-578.46320	541.75397	47.18472	-694.93073	487.56088	46.49280	-680.07440	523.40302	112.50109	-625.55914	597.25513	51.48315	-586.90302	585.98376	56.84136	-690.14453	477.96094	543.15967	-444.33392	304.90271	1067.57520	-460.91620 
90	0.742	535.51575	1458.95447	-469.38022	382.32999	1572.80005	-450.82712	434.37350	1556.11536	-299.45074	407.06616	1554.95386	-598.03253	563.12512	1303.32031	-456.39111	293.59348	1352.12646	-447.54907	492.11386	1039.61035	-320.80008	503.10428	1045.32214	-602.02136	305.89828	1067.69678	-409.75589	303.88834	1067.46802	-512.03986	444.20724	874.37213	-656.50897	469.13144	643.35907	-638.81476	544.17914	747.53345	-585.91730	473.73630	558.42456	-641.98999	466.52463	565.32727	-499.52771	464.36264	405.68478	-659.55481	429.64197	205.23291	-642.98535	487.92105	294.60608	-601.94525	410.72598	124.57735	-643.53131	439.54257	125.15430	-557.90198	428.13239	846.32489	-284.54703	442.78851	610.21039	-308.96326	531.63672	764.03131	-338.24295	435.03931	545.09338	-308.29007	421.87140	448.42261	-302.89532	414.04510	194.25800	-335.59158	480.37692	318.21323	-367.63882	404.81992	119.94662	-339.28009	436.67767	137.53955	-425.74786	331.74179	79.29153	-394.83466	645.97260	62.95111	-351.64841	552.38098	49.06554	-414.16638	540.96411	43.34251	-295.69955	486.16800	43.64969	-309.79459	514.18115	110.80368	-364.45935	597.68390	50.24134	-403.94855	588.73071	48.18529	-301.49445	341.30460	83.37286	-590.98627	648.71521	73.86884	-642.79028	555.44513	50.69577	-578.46649	541.73895	47.18587	-694.91101	487.57983	46.49206	-680.07745	523.39240	112.58060	-625.59528	597.13916	51.48264	-587.00159	586.03925	56.84669	-690.14636	477.95535	543.17059	-444.32520	304.89331	1067.58240	-460.89789 
91	0.750	535.55072	1458.95483	-469.42352	382.38098	1572.79907	-450.85498	434.44885	1556.13818	-299.49591	407.12265	1554.96082	-598.07764	563.12762	1303.27271	-456.38770	293.58340	1352.14221	-447.56955	492.13031	1039.60559	-320.80658	503.16901	1045.31982	-602.06219	305.89618	1067.71069	-409.80261	303.92337	1067.45654	-512.05566	444.27863	874.40991	-656.57861	469.17578	643.35571	-638.83319	544.17395	747.52527	-585.94250	473.83142	558.33899	-642.03467	466.53122	565.32452	-499.52957	464.37747	405.67206	-659.56427	429.63678	205.22295	-643.00659	487.93958	294.60440	-601.93439	410.73392	124.58185	-643.53748	439.54343	125.14948	-557.91150	428.12085	846.32465	-284.56711	442.78470	610.20068	-308.97159	531.63538	764.01953	-338.24332	435.03561	545.10956	-308.28867	421.86945	448.42004	-302.90286	414.04785	194.24065	-335.59787	480.38162	318.20529	-367.62680	404.81650	119.93513	-339.29895	436.67889	137.53941	-425.74722	331.78912	79.40767	-394.68781	645.96405	62.95394	-351.62613	552.39856	49.11264	-414.20349	540.82727	43.46553	-295.57813	486.21368	43.69197	-309.80530	514.15851	110.76799	-364.49490	597.68341	50.24096	-403.94849	588.71179	48.17994	-301.47644	341.31973	83.36620	-590.98468	648.71039	73.88249	-642.78436	555.44495	50.69871	-578.46484	541.77118	47.18810	-694.92407	487.86511	46.55593	-680.06635	523.40491	112.49489	-625.55780	597.13129	51.48639	-587.01910	586.04004	56.84396	-690.14813	477.96725	543.21783	-444.34116	304.90979	1067.58362	-460.92914 
